# xmcd
#
# Track frame offsets: 
#        150
#        15427
#        32233
#        49914
#        62907
#        80372
#        92131
#        106756
#        124174
#        142155
#        155370
#        170033
#        182446
#        198778
#        211801
#        230940
#        246757
#        263271
#
# Disc length: 3672 seconds
#
# Revision: 2
# Processed by: cddbd v1.5.2PL0 Copyright (c) Steve Scherf et al.
# Submitted via: ExactAudioCopyFreeDBPlugin 1.0
#
DISCID=f10e5612
DTITLE=Various Artist - Blick auf Country - Country Love Songs
DYEAR=2006
DGENRE=Country
TTITLE0=Deana Carter - We Danced Anyway
TTITLE1=Suzy Bogguss - Train Of Thought
TTITLE2=Billy Dean - I Wanna Take Care Of You
TTITLE3=Bobbie Gentry - I'll Never Fall In Love Again
TTITLE4=Kenny Rogers - Lady
TTITLE5=Lacy J Dalton - Love Hurts
TTITLE6=Dean Miller and Trisha Yearwood - Dreams
TTITLE7=Sarah Jory - Always The Same In Love
TTITLE8=Dottie West - Hey Mr Dream Maker
TTITLE9=Dr. Hook - When You're In Love With A Beautiful Women
TTITLE10=Gail Davies - I'm A Little Bit Lonely
TTITLE11=Glen Campbell and Rita Coolidge - Somethin Bout You Baby I Like
TTITLE12=Larry Gatlin and Gatlin Brothers - Country Girl Heart
TTITLE13=Barbara Mandrell - I Wish That I Could Fall In Love Today
TTITLE14=Lee Greenwood and Lacy J Dalton - From Now On
TTITLE15=Juice Newton - Come To Me
TTITLE16=Marco Gottardi - Do It The Romantic Way
TTITLE17=Del Reeves and Billie Jo Spears - Let Youre Love Flow
EXTD=Blick Edition
EXTT0=
EXTT1=
EXTT2=
EXTT3=
EXTT4=
EXTT5=
EXTT6=
EXTT7=
EXTT8=
EXTT9=
EXTT10=
EXTT11=
EXTT12=
EXTT13=
EXTT14=
EXTT15=
EXTT16=
EXTT17=
PLAYORDER=
